# File created by Blade
# Date/Time:  Wed Apr 08 17:39:41 2015
#---------------------------------------------------------
:version 1.10
:name HOM
:units
  mass 1.0
  length 1.000000
  angle deg
:documentation
     Acclaim Skeleton File
:root
   axis xyz
   order TX TY TZ RX RY RZ
   position 0.000000 0.000000 0.000000
   orientation 0 0 0
:bonedata
   begin
      id 1
      name Spine_dum
      direction 0.000000 1.000000 0.000000
      length 5.893853
      axis 0.0 0.0 0.0 xyz
   end
   begin
      id 2
      name LeftUpLeg_dum
      direction 1.000000 0.000000 0.000000
      length 3.697939
      axis 0.0 0.0 0.0 xyz
   end
   begin
      id 3
      name RightUpLeg_dum
      direction -1.000000 0.000000 0.000000
      length 3.697939
      axis 0.0 0.0 0.0 xyz
   end
   begin
      id 4
      name Spine
      direction 0.000000 1.000000 0.000000
      length 0.000000
      axis 0.0 0.0 0.0 xyz
      dof rx ry rz
   end
   begin
      id 5
      name Spine_dum1
      direction 0.000000 1.000000 0.000000
      length 16.447146
      axis 0.0 0.0 0.0 xyz
   end
   begin
      id 6
      name Spine_dum2
      direction 0.000000 1.000000 0.000000
      length 10.900383
      axis 0.0 0.0 0.0 xyz
   end
   begin
      id 7
      name Spine_dum3
      direction 0.000000 1.000000 0.000000
      length 10.900383
      axis 0.0 0.0 0.0 xyz
   end
   begin
      id 8
      name Head
      direction 0.000000 1.000000 0.000000
      length 4.527550
      axis 0.0 0.0 0.0 xyz
      dof rx ry rz
   end
   begin
      id 9
      name LeftShoulder
      direction 1.000000 0.000000 0.000000
      length 8.219464
      axis 0.0 0.0 -90.0 xyz
      dof rx ry rz
   end
   begin
      id 10
      name LeftArm
      direction 1.000000 0.000000 0.000000
      length 11.094937
      axis 0.0 0.0 -90.0 xyz
      dof rx ry rz
   end
   begin
      id 11
      name LeftForeArm
      direction 1.000000 0.000000 0.000000
      length 9.103875
      axis 0.0 0.0 -90.0 xyz
      dof ry rz rx
   end
   begin
      id 12
      name LeftHand
      direction 0.000000 0.000000 0.000000
      length 0.000000
      axis 0.0 0.0 -90.0 xyz
      dof rx ry rz
   end
   begin
      id 13
      name LeftHand_dum1
      direction 0.000000 0.000000 0.000000
      length 0.000000
      axis 0.0 0.0 -90.0 xyz
   end
   begin
      id 14
      name LeftHand_dum2
      direction 1.000000 0.000000 0.000000
      length 3.937000
      axis 0.0 0.0 -90.0 xyz
   end
   begin
      id 15
      name LeftHandThumb1
      direction 0.000000 0.000000 1.000000
      length 3.937000
      axis 0.0 0.0 -90.0 xyz
      dof rx rz ry
   end
   begin
      id 16
      name RightShoulder
      direction -1.000000 0.000000 0.000000
      length 8.219464
      axis 0.0 0.0 90.0 xyz
      dof rx ry rz
   end
   begin
      id 17
      name RightArm
      direction -1.000000 0.000000 0.000000
      length 11.094937
      axis 0.0 0.0 90.0 xyz
      dof rx ry rz
   end
   begin
      id 18
      name RightForeArm
      direction -1.000000 0.000000 0.000000
      length 9.103875
      axis 0.0 0.0 90.0 xyz
      dof ry rz rx
   end
   begin
      id 19
      name RightHand
      direction 0.000000 0.000000 0.000000
      length 0.000000
      axis 0.0 0.0 90.0 xyz
      dof rx ry rz
   end
   begin
      id 20
      name RightHand_dum1
      direction 0.000000 0.000000 0.000000
      length 0.000000
      axis 0.0 0.0 90.0 xyz
   end
   begin
      id 21
      name RightHand_dum2
      direction -1.000000 0.000000 0.000000
      length 3.937000
      axis 0.0 0.0 90.0 xyz
   end
   begin
      id 22
      name RightHandThumb1
      direction 0.000000 0.000000 1.000000
      length 3.937000
      axis 0.0 0.0 90.0 xyz
      dof rx rz ry
   end
   begin
      id 23
      name LeftUpLeg
      direction 0.000000 -1.000000 0.000000
      length 16.181467
      axis 0.0 0.0 0.0 xyz
      dof rx ry rz
   end
   begin
      id 24
      name LeftLeg
      direction 0.000000 -1.000000 0.000000
      length 16.501392
      axis 0.0 0.0 0.0 xyz
      dof rx ry rz
   end
   begin
      id 25
      name LeftFoot
      direction 0.000000 -0.258819 0.965926
      length 6.408245
      axis 15.0 0.0 0.0 xyz
      dof rx ry rz
   end
   begin
      id 26
      name LeftToeBase
      direction 0.000000 0.000000 1.000000
      length 2.952750
      axis 0.0 0.0 0.0 xyz
      dof rx ry rz
   end
   begin
      id 27
      name RightUpLeg
      direction 0.000000 -1.000000 0.000000
      length 16.181467
      axis 0.0 0.0 0.0 xyz
      dof rx ry rz
   end
   begin
      id 28
      name RightLeg
      direction 0.000000 -1.000000 0.000000
      length 16.501392
      axis 0.0 0.0 0.0 xyz
      dof rx ry rz
   end
   begin
      id 29
      name RightFoot
      direction 0.000000 -0.258819 0.965926
      length 6.408245
      axis 15.0 0.0 0.0 xyz
      dof rx ry rz
   end
   begin
      id 30
      name RightToeBase
      direction 0.000000 0.000000 1.000000
      length 2.952750
      axis 0.0 0.0 0.0 xyz
      dof rx ry rz
   end
:hierarchy
   begin
      root Spine_dum LeftUpLeg_dum RightUpLeg_dum
      Spine_dum Spine
      LeftUpLeg_dum LeftUpLeg
      RightUpLeg_dum RightUpLeg
      Spine Spine_dum1 Spine_dum2 Spine_dum3
      Spine_dum1 Head
      Spine_dum2 LeftShoulder
      Spine_dum3 RightShoulder
      LeftShoulder LeftArm
      LeftArm LeftForeArm
      LeftForeArm LeftHand
      LeftHand LeftHand_dum1 LeftHand_dum2
      LeftHand_dum1 LeftHandThumb1
      RightShoulder RightArm
      RightArm RightForeArm
      RightForeArm RightHand
      RightHand RightHand_dum1 RightHand_dum2
      RightHand_dum1 RightHandThumb1
      LeftUpLeg LeftLeg
      LeftLeg LeftFoot
      LeftFoot LeftToeBase
      RightUpLeg RightLeg
      RightLeg RightFoot
      RightFoot RightToeBase
   end

# File created by Blade
# Date/Time:  Wed Apr 08 17:39:35 2015
# Frame Rate: 120.000 fps
#------------------------------------------------------
:FULLY-SPECIFIED
:DEGREES
1438
root 4.677033 36.588890 3.905610 -11.695525 -71.241482 -385.406835
Spine 43.196179 -1.031421 -0.042000
Head 31.444123 6.643174 15.062719
LeftShoulder -7.629073 14.704661 15.844554
LeftArm 21.851894 18.632075 -78.697554
LeftForeArm 17.776581 -0.000000 21.653005
LeftHand -12.401102 0.000000 -11.811811
LeftHandThumb1 -26.253704 0.000000 33.147579
RightShoulder -29.888964 -44.599986 11.891329
RightArm 57.741625 -20.346635 53.973109
RightForeArm 12.926006 0.000000 20.516226
RightHand 1.422002 -0.000000 24.609693
RightHandThumb1 -24.326973 -0.000000 -32.862282
LeftUpLeg 43.382534 12.920349 13.557342
LeftLeg 6.786512 -0.000000 -0.000000
LeftFoot -13.367376 4.221265 -2.966924
LeftToeBase 2.691721 -0.000000 -0.000000
RightUpLeg -22.442223 -9.628888 8.700210
RightLeg 77.533315 -0.000000 -0.000000
RightFoot 28.221236 4.273798 35.646145
RightToeBase 23.518852 -0.000000 -0.000000
1439
root 4.668119 36.600458 3.905818 -11.722332 -71.135422 -385.657886
Spine 43.533759 -1.177436 -0.000011
Head 31.317341 6.673527 14.982550
LeftShoulder -7.636994 14.691872 15.842020
LeftArm 21.845280 18.628655 -78.708086
LeftForeArm 17.750512 0.000000 21.692650
LeftHand -12.407888 -0.000000 -11.785392
LeftHandThumb1 -26.253704 0.000000 33.147579
RightShoulder -29.864093 -44.590966 11.803999
RightArm 57.694052 -20.321954 54.141576
RightForeArm 13.013713 -0.000000 20.552059
RightHand 1.836522 -0.000000 23.741992
RightHandThumb1 -24.326973 -0.000000 -32.862282
LeftUpLeg 43.605271 12.872414 13.823280
LeftLeg 6.879584 -0.000000 -0.000000
LeftFoot -13.358736 4.037704 -2.965663
LeftToeBase 2.638843 -0.000000 -0.000000
RightUpLeg -22.113719 -10.135954 8.853863
RightLeg 77.038386 -0.000000 -0.000000
RightFoot 27.169236 5.431268 36.375856
RightToeBase 22.724469 -0.000000 -0.000000
1440
root 4.654120 36.616185 3.903355 -11.720580 -70.964822 -386.019317
Spine 43.958396 -1.380194 0.055392
Head 31.172012 6.722375 14.926576
LeftShoulder -7.657115 14.664343 15.861210
LeftArm 21.858214 18.632265 -78.729611
LeftForeArm 17.738651 -0.000000 21.714596
LeftHand -12.397461 -0.000000 -11.750305
LeftHandThumb1 -26.253704 0.000000 33.147579
RightShoulder -29.856209 -44.585230 11.746731
RightArm 57.645313 -20.276063 54.321105
RightForeArm 13.102747 -0.000000 20.613850
RightHand 2.207947 -0.000000 22.825950
RightHandThumb1 -24.326973 -0.000000 -32.862282
LeftUpLeg 43.881723 12.710335 14.113795
LeftLeg 6.968754 -0.000000 -0.000000
LeftFoot -13.328682 3.854727 -2.982008
LeftToeBase 2.506701 -0.000000 -0.000000
RightUpLeg -21.683694 -10.708359 9.008704
RightLeg 76.502989 -0.000000 -0.000000
RightFoot 26.025551 6.581754 36.942562
RightToeBase 23.048225 -0.000000 -0.000000
1441
root 4.631822 36.640067 3.907978 -11.794190 -70.749445 -386.511376
Spine 44.606243 -1.659043 0.159896
Head 30.968429 6.774024 14.803762
LeftShoulder -7.661993 14.610655 15.894348
LeftArm 21.852529 18.664675 -78.779907
LeftForeArm 17.706480 -0.000000 21.759079
LeftHand -12.423526 -0.000000 -11.686044
LeftHandThumb1 -26.253704 0.000000 33.147579
RightShoulder -29.853068 -44.589583 11.638182
RightArm 57.623088 -20.239669 54.501209
RightForeArm 13.161742 -0.000000 20.704039
RightHand 2.530753 -0.000000 21.889250
RightHandThumb1 -24.326973 -0.000000 -32.862282
LeftUpLeg 44.364748 12.430663 14.454134
LeftLeg 7.025780 -0.000000 -0.000000
LeftFoot -13.268273 3.722154 -2.985855
LeftToeBase 2.440261 -0.000000 -0.000000
RightUpLeg -20.997726 -11.380143 9.116060
RightLeg 75.905600 -0.000000 -0.000000
RightFoot 24.835692 7.754983 37.309903
RightToeBase 21.673619 -0.000000 -0.000000
1442
root 4.618557 36.656225 3.909151 -11.821852 -70.588080 -386.850673
Spine 45.032718 -1.859555 0.227095
Head 30.829272 6.797683 14.716537
LeftShoulder -7.677753 14.604548 15.903250
LeftArm 21.890726 18.664638 -78.800831
LeftForeArm 17.696737 0.000000 21.794524
LeftHand -12.433983 0.000000 -11.663271
LeftHandThumb1 -26.253704 0.000000 33.147579
RightShoulder -29.838254 -44.585546 11.548390
RightArm 57.543600 -20.156465 54.782385
RightForeArm 13.136095 -0.000000 20.729289
RightHand 2.862207 -0.000000 21.027774
RightHandThumb1 -24.326973 -0.000000 -32.862282
LeftUpLeg 44.648863 12.236922 14.686281
LeftLeg 7.097172 -0.000000 -0.000000
LeftFoot -13.248471 3.630518 -2.984849
LeftToeBase 2.397241 -0.000000 -0.000000
RightUpLeg -20.548266 -11.915879 9.221674
RightLeg 75.348730 -0.000000 -0.000000
RightFoot 23.422805 9.025413 37.335094
RightToeBase 18.793290 -0.000000 -0.000000
1443
root 4.607229 36.670547 3.909844 -11.838874 -70.437980 -387.138681
Spine 45.383999 -2.033332 0.282470
Head 30.725258 6.792174 14.652526
LeftShoulder -7.678293 14.601549 15.923801
LeftArm 21.922937 18.676393 -78.827291
LeftForeArm 17.690519 0.000000 21.832392
LeftHand -12.455838 -0.000000 -11.630971
LeftHandThumb1 -26.253704 0.000000 33.147579
RightShoulder -29.863555 -44.601857 11.523540
RightArm 57.496995 -20.080372 54.967147
RightForeArm 13.239442 -0.000000 20.763726
RightHand 3.173782 -0.000000 20.153002
RightHandThumb1 -24.326973 -0.000000 -32.862282
LeftUpLeg 44.871027 12.069911 14.882866
LeftLeg 7.167521 -0.000000 -0.000000
LeftFoot -13.222197 3.569090 -2.982115
LeftToeBase 2.300287 -0.000000 -0.000000
RightUpLeg -20.162604 -12.418946 9.314798
RightLeg 74.807226 -0.000000 -0.000000
RightFoot 21.747803 10.283879 37.088189
RightToeBase 16.881952 -0.000000 -0.000000
